<?xml version="1.0" encoding="UTF-8" standalone="no"?>
<svg width="264px" height="162px" viewBox="0 0 264 162" version="1.1" xmlns="http://www.w3.org/2000/svg" xmlns:xlink="http://www.w3.org/1999/xlink" xmlns:sketch="http://www.bohemiancoding.com/sketch/ns">
    <title>Slice 1</title>
    <description>Created with Sketch (http://www.bohemiancoding.com/sketch)</description>
    <defs></defs>
    <g id="Page-1" stroke="none" stroke-width="1" fill="none" fill-rule="evenodd" sketch:type="MSPage">
        <g id="Group" sketch:type="MSLayerGroup" transform="translate(132.000000, 81.000000) scale(-1, 1) translate(-132.000000, -81.000000) ">
            <g id="Group-copy" sketch:type="MSShapeGroup">
                <path d="M24.833,151.362 L13.366,161.357 L0.5,151.749 L0.5,0.5 L263.5,0.5 L263.5,152.249 L254.5,158.954 L254.5,42.5 L215.5,42.5 L215.5,155.1 L211.107,151.369 L203.5,156.699 L203.5,42.5 L48.5,42.5 L48.5,153.349 L38.749,161.38 L24.833,151.362 Z" id="Shape" fill="#FFFFFF"></path>
                <path d="M263,1 L263,151.998 L255,157.958 L255,43 L255,42 L254,42 L216,42 L215,42 L215,43 L215,154.019 L211.726,151.24 L211.137,150.741 L210.504,151.181 L204,155.738 L204,43 L204,42 L203,42 L49,42 L48,42 L48,43 L48,153.099 L38.743,160.76 L25.448,151.191 L24.804,150.726 L24.206,151.247 L13.342,160.717 L1,151.499 L1,1 L263,1 L263,1 Z M264,0 L0,0 L0,152 L13.391,162 L24.864,152 L38.755,162 L49,153.6 L49,43 L203,43 L203,157.66 L211.078,152 L216,156.18 L216,43 L254,43 L254,159.95 L264,152.5 L264,0 L264,0 L264,0 L264,0 Z" id="Shape" fill="#E5E5E5"></path>
            </g>
            <path d="M203,157.66 L203,43 L49,43 L49,153.6 L51.145,152 L63.7,162 L77.509,152 L91.738,162 L104.71,152 L117.683,162 L131.494,152 L143.63,162 L157.021,152 L171.25,162 L184.222,152 L197.196,162 L203,157.66 L203,157.66 L203,157.66 L203,157.66 Z" id="Shape-copy" fill="#E5E5E5" sketch:type="MSShapeGroup"></path>
            <path d="M11,36 C11,28.268 17.268,22 25,22 C32.732,22 39,28.268 39,36 C39,43.732 32.732,50 25,50 C17.268,50 11,43.732 11,36 C11,36 11,43.732 11,36 L11,36 L11,36 Z" id="Ellipse-copy" fill="#E5E5E5" sketch:type="MSShapeGroup"></path>
            <path d="M254,159.95 L254,43 L216,43 L216,156.18 L223.551,162 L237.362,152 L251.253,162 L254,159.95 L254,159.95 L254,159.95 L254,159.95 Z" id="Shape-copy" fill="#E5E5E5" sketch:type="MSShapeGroup"></path>
            <path d="M38,107 L38,72 L13,72 L13,107 L38,107 L38,107 L38,107 L38,107 Z" id="Shape-copy" fill="#E5E5E5" sketch:type="MSShapeGroup"></path>
            <path d="M233,5 L259,5 L259,11 L233,11 L233,5 L233,5 L233,5 L233,5 Z" id="Shape-copy" fill="#E5E5E5" sketch:type="MSShapeGroup"></path>
            <path d="M142,6 L142,10 L50,10 L50,6 L142,6 L142,6 Z M143,5 L49,5 L49,11 L143,11 L143,5 L143,5 L143,5 L143,5 Z" id="Shape-copy" fill="#E5E5E5" sketch:type="MSShapeGroup"></path>
            <rect id="Rectangle-copy" fill="#E5E5E5" sketch:type="MSShapeGroup" x="221" y="5" width="6" height="6"></rect>
            <rect id="Rectangle-copy-2" fill="#E5E5E5" sketch:type="MSShapeGroup" x="211" y="5" width="6" height="6"></rect>
            <rect id="Rectangle-copy-3" fill="#E5E5E5" sketch:type="MSShapeGroup" x="201" y="5" width="6" height="6"></rect>
            <rect id="Rectangle-copy" fill="#E5E5E5" sketch:type="MSShapeGroup" x="9" y="5" width="32" height="6"></rect>
            <path d="M2,15 L262,15" id="Shape-copy" stroke="#E5E5E5" fill="#E5E5E5" sketch:type="MSShapeGroup"></path>
            <rect id="Rectangle-copy" fill="#E5E5E5" sketch:type="MSShapeGroup" x="52" y="7" width="2" height="2"></rect>
            <path d="M38,59 L38,54 L13,54 L13,59 L38,59 L38,59 L38,59 L38,59 Z" id="Shape-copy" fill="#E5E5E5" sketch:type="MSShapeGroup"></path>
            <circle id="Oval-2-copy" fill="#0E73FC" sketch:type="MSShapeGroup" cx="216.5" cy="10.5" r="2.5"></circle>
        </g>
    </g>
</svg>