<?xml version="1.0" encoding="utf-8"?>
<!-- Generator: Adobe Illustrator 17.1.0, SVG Export Plug-In . SVG Version: 6.00 Build 0)  -->
<!DOCTYPE svg PUBLIC "-//W3C//DTD SVG 1.1//EN" "http://www.w3.org/Graphics/SVG/1.1/DTD/svg11.dtd">
<svg version="1.1" id="Layer_1" xmlns:sketch="http://www.bohemiancoding.com/sketch/ns"
	 xmlns="http://www.w3.org/2000/svg" xmlns:xlink="http://www.w3.org/1999/xlink" x="0px" y="0px" width="264px" height="162px"
	 viewBox="0 0 264 162" enable-background="new 0 0 264 162" xml:space="preserve">
<filter  width="200%" height="200%" x="-50%" filterUnits="objectBoundingBox" y="-50%" id="filter-1">
	<feOffset  in="SourceAlpha" dy="2" result="shadowOffsetOuter1" dx="2"></feOffset>
	<feGaussianBlur  stdDeviation="0" in="shadowOffsetOuter1" result="shadowBlurOuter1"></feGaussianBlur>
	
		<feColorMatrix  type="matrix" values="0 0 0 0 0   0 0 0 0 0   0 0 0 0 0  0 0 0 0.155621603 0" in="shadowBlurOuter1" result="shadowMatrixOuter1">
		</feColorMatrix>
	<feMerge>
		<feMergeNode  in="shadowMatrixOuter1"></feMergeNode>
		<feMergeNode  in="SourceGraphic"></feMergeNode>
	</feMerge>
</filter>
<title>Slice 2</title>
<desc>Created with Sketch.</desc>
<g id="Page-1" sketch:type="MSPage">
	<path id="Ellipse" sketch:type="MSShapeGroup" fill="#E5E5E5" d="M253,24L253,24C253,31.7,253,24,253,24c0,7.7-6.3,14-14,14
		s-14-6.3-14-14s6.3-14,14-14S253,16.3,253,24L253,24z"/>
	<g id="Group-_x2B_-Shape-_x2B_-Shape" sketch:type="MSLayerGroup">
		<g sketch:type="MSShapeGroup">
			<g id="Group">
				<path id="Shape" fill="#FFFFFF" d="M225.3,161.4l-9.8-8V42.5h-155v114.2l-7.6-5.3l-4.4,3.7V42.5h-39V159l-9-6.7V0.5h263v151.2
					l-12.9,9.6l-11.5-10L225.3,161.4z"/>
				<path id="Shape_1_" fill="#E5E5E5" d="M1,1h262v150.5l-12.3,9.2l-10.9-9.5l-0.6-0.5l-0.6,0.5l-13.3,9.6l-9.3-7.7V43v-1h-1H61h-1
					v1v112.7l-6.5-4.6l-0.6-0.4l-0.6,0.5L49,154V43v-1h-1H10H9v1v115l-8-6V1L1,1z M0,0L0,0L0,0l0,152.5l10,7.4V43h38v113.2l4.9-4.2
					l8.1,5.7V43h154v110.6l10.2,8.4l13.9-10l11.5,10l13.4-10V0L0,0L0,0z"/>
			</g>
			<path id="Shape_2_" fill="#E5E5E5" d="M61,157.7l5.8,4.3l13-10l13,10l14.2-10l13.4,10l12.1-10l13.8,10l13-10l13,10l14.2-10
				l13.8,10l12.6-10l2.1,1.6V43H61V157.7z"/>
			<path id="Shape_3_" fill="#E5E5E5" d="M10,159.9L10,159.9L10,159.9l2.7,2.1l13.9-10l13.8,10l7.6-5.8V43H10V159.9L10,159.9z"/>
		</g>
	</g>
	<path id="Shape_4_" sketch:type="MSShapeGroup" fill="#E5E5E5" d="M226,137L226,137L226,137h25V60h-25V137L226,137z"/>
	<path id="Shape_5_" sketch:type="MSShapeGroup" fill="#E5E5E5" d="M31,5L31,5L31,5v6H5V5H31L31,5z"/>
	<rect id="Rectangle" x="37" y="5" sketch:type="MSShapeGroup" fill="#E5E5E5" width="6" height="6">
	</rect>
	<rect id="Rectangle-copy" x="47" y="5" sketch:type="MSShapeGroup" fill="#E5E5E5" width="6" height="6">
	</rect>
	<rect id="Rectangle-copy-2" x="57" y="5" sketch:type="MSShapeGroup" fill="#E5E5E5" width="6" height="6">
	</rect>
	<path id="Shape_6_" sketch:type="MSShapeGroup" fill="#E5E5E5" d="M226,47L226,47L226,47h25v-5h-25V47L226,47z"/>
	<path id="Ellipse_1_" sketch:type="MSShapeGroup" fill="#E5E5E5" d="M253,24c0,7.7-6.3,14-14,14s-14-6.3-14-14s6.3-14,14-14
		S253,16.3,253,24L253,24z"/>
	<g id="Rectangle-8" sketch:type="MSShapeGroup" filter="url(#filter-1)">
		<rect x="92" y="60" fill="#FFFFFF" width="90" height="53"/>
	</g>
	<path id="Rectangle-4" sketch:type="MSShapeGroup" fill="#56B08A" d="M116,101v5c0,1.1-0.9,2-2,2H98c-1.1,0-2-0.9-2-2v-5
		c0-1.1,0.9-2,2-2h16C115.1,99,116,99.9,116,101z"/>
	<path id="Rectangle-4_1_" sketch:type="MSShapeGroup" fill="#357AFB" d="M138,101v5c0,1.1-0.9,2-2,2h-16c-1.1,0-2-0.9-2-2v-5
		c0-1.1,0.9-2,2-2h16C137.1,99,138,99.9,138,101z"/>
	<path id="Rectangle-4_2_" sketch:type="MSShapeGroup" fill="#DDDDDD" d="M160,101v5c0,1.1-0.9,2-2,2h-16c-1.1,0-2-0.9-2-2v-5
		c0-1.1,0.9-2,2-2h16C159.1,99,160,99.9,160,101z"/>
	<rect id="Rectangle-4_3_" x="110" y="67" sketch:type="MSShapeGroup" fill="#DDDDDD" width="66" height="2">
	</rect>
	<rect id="Rectangle-4_4_" x="108" y="87" sketch:type="MSShapeGroup" fill="#DDDDDD" width="68" height="2">
	</rect>
	<rect id="Rectangle-4_5_" x="120" y="72" sketch:type="MSShapeGroup" fill="#DDDDDD" width="56" height="2">
	</rect>
	<rect id="Rectangle-4_6_" x="120" y="82" sketch:type="MSShapeGroup" fill="#DDDDDD" width="56" height="2">
	</rect>
	<rect id="Rectangle-4_7_" x="113" y="77" sketch:type="MSShapeGroup" fill="#DDDDDD" width="63" height="2">
	</rect>
</g>
</svg>
