<?xml version="1.0" encoding="UTF-8" standalone="no"?>
<svg width="264px" height="162px" viewBox="0 0 264 162" version="1.1" xmlns="http://www.w3.org/2000/svg" xmlns:xlink="http://www.w3.org/1999/xlink" xmlns:sketch="http://www.bohemiancoding.com/sketch/ns">
    <!-- Generator: Sketch 3.0.4 (8053) - http://www.bohemiancoding.com/sketch -->
    <title>Slice 2</title>
    <desc>Created with Sketch.</desc>
    <defs>
        <filter x="-50%" y="-50%" width="200%" height="200%" filterUnits="objectBoundingBox" id="filter-1">
            <feOffset dx="2" dy="2" in="SourceAlpha" result="shadowOffsetOuter1"></feOffset>
            <feGaussianBlur stdDeviation="0" in="shadowOffsetOuter1" result="shadowBlurOuter1"></feGaussianBlur>
            <feColorMatrix values="0 0 0 0 0   0 0 0 0 0   0 0 0 0 0  0 0 0 0.155621603 0" in="shadowBlurOuter1" type="matrix" result="shadowMatrixOuter1"></feColorMatrix>
            <feMerge>
                <feMergeNode in="shadowMatrixOuter1"></feMergeNode>
                <feMergeNode in="SourceGraphic"></feMergeNode>
            </feMerge>
        </filter>
    </defs>
    <g id="Page-1" stroke="none" stroke-width="1" fill="none" fill-rule="evenodd" sketch:type="MSPage">
        <path d="M11,24 C11,16.268 17.268,10 25,10 C32.732,10 39,16.268 39,24 C39,31.732 32.732,38 25,38 C17.268,38 11,31.732 11,24 C11,24 11,31.732 11,24 L11,24 L11,24 Z" id="Ellipse" fill="#E5E5E5" sketch:type="MSShapeGroup"></path>
        <g id="Group-+-Shape-+-Shape" sketch:type="MSLayerGroup">
            <g sketch:type="MSShapeGroup">
                <g id="Group">
                    <path d="M24.833,151.362 L13.366,161.357 L0.5,151.749 L0.5,0.5 L263.5,0.5 L263.5,152.249 L254.5,158.954 L254.5,42.5 L215.5,42.5 L215.5,155.1 L211.107,151.369 L203.5,156.699 L203.5,42.5 L48.5,42.5 L48.5,153.349 L38.749,161.38 L24.833,151.362 Z" id="Shape" fill="#FFFFFF"></path>
                    <path d="M263,1 L263,151.998 L255,157.958 L255,43 L255,42 L254,42 L216,42 L215,42 L215,43 L215,154.019 L211.726,151.24 L211.137,150.741 L210.504,151.181 L204,155.738 L204,43 L204,42 L203,42 L49,42 L48,42 L48,43 L48,153.099 L38.743,160.76 L25.448,151.191 L24.804,150.726 L24.206,151.247 L13.342,160.717 L1,151.499 L1,1 L263,1 L263,1 Z M264,0 L0,0 L0,152 L13.391,162 L24.864,152 L38.755,162 L49,153.6 L49,43 L203,43 L203,157.66 L211.078,152 L216,156.18 L216,43 L254,43 L254,159.95 L264,152.5 L264,0 L264,0 L264,0 L264,0 Z" id="Shape" fill="#E5E5E5"></path>
                </g>
                <path d="M203,43 L49,43 L49,153.6 L51.145,152 L63.7,162 L77.509,152 L91.738,162 L104.71,152 L117.683,162 L131.494,152 L143.63,162 L157.021,152 L171.25,162 L184.222,152 L197.196,162 L203,157.66 L203,43 Z" id="Shape" fill="#E5E5E5"></path>
                <path d="M254,159.95 L254,43 L216,43 L216,156.18 L223.551,162 L237.362,152 L251.253,162 L254,159.95 L254,159.95 L254,159.95 L254,159.95 Z" id="Shape" fill="#E5E5E5"></path>
            </g>
        </g>
        <path d="M38,137 L38,60 L13,60 L13,137 L38,137 L38,137 L38,137 L38,137 Z" id="Shape" fill="#E5E5E5" sketch:type="MSShapeGroup"></path>
        <path d="M233,5 L259,5 L259,11 L233,11 L233,5 L233,5 L233,5 L233,5 Z" id="Shape" fill="#E5E5E5" sketch:type="MSShapeGroup"></path>
        <rect id="Rectangle" fill="#E5E5E5" sketch:type="MSShapeGroup" x="221" y="5" width="6" height="6"></rect>
        <rect id="Rectangle-copy" fill="#E5E5E5" sketch:type="MSShapeGroup" x="211" y="5" width="6" height="6"></rect>
        <rect id="Rectangle-copy-2" fill="#E5E5E5" sketch:type="MSShapeGroup" x="201" y="5" width="6" height="6"></rect>
        <path d="M38,47 L38,42 L13,42 L13,47 L38,47 L38,47 L38,47 L38,47 Z" id="Shape" fill="#E5E5E5" sketch:type="MSShapeGroup"></path>
        <path d="M11,24 C11,16.268 17.268,10 25,10 C32.732,10 39,16.268 39,24 C39,31.732 32.732,38 25,38 C17.268,38 11,31.732 11,24 L11,24 Z" id="Ellipse" fill="#E5E5E5" sketch:type="MSShapeGroup"></path>
        <rect id="Rectangle-8" fill="#FFFFFF" filter="url(#filter-1)" sketch:type="MSShapeGroup" x="82" y="60" width="90" height="53"></rect>
        <rect id="Rectangle-4" fill="#56B08A" sketch:type="MSShapeGroup" x="148" y="99" width="20" height="9" rx="2"></rect>
        <rect id="Rectangle-4" fill="#357AFB" sketch:type="MSShapeGroup" x="126" y="99" width="20" height="9" rx="2"></rect>
        <rect id="Rectangle-4" fill="#DDDDDD" sketch:type="MSShapeGroup" x="104" y="99" width="20" height="9" rx="2"></rect>
        <rect id="Rectangle-4" fill="#DDDDDD" sketch:type="MSShapeGroup" x="88" y="67" width="66" height="2"></rect>
        <rect id="Rectangle-4" fill="#DDDDDD" sketch:type="MSShapeGroup" x="88" y="87" width="68" height="2"></rect>
        <rect id="Rectangle-4" fill="#DDDDDD" sketch:type="MSShapeGroup" x="88" y="72" width="56" height="2"></rect>
        <rect id="Rectangle-4" fill="#DDDDDD" sketch:type="MSShapeGroup" x="88" y="82" width="56" height="2"></rect>
        <rect id="Rectangle-4" fill="#DDDDDD" sketch:type="MSShapeGroup" x="88" y="77" width="63" height="2"></rect>
    </g>
</svg>