<?xml version="1.0" encoding="UTF-8" standalone="no"?>
<!-- Generator: Adobe Illustrator 16.0.4, SVG Export Plug-In . SVG Version: 6.00 Build 0)  -->

<svg
   xmlns:dc="http://purl.org/dc/elements/1.1/"
   xmlns:cc="http://creativecommons.org/ns#"
   xmlns:rdf="http://www.w3.org/1999/02/22-rdf-syntax-ns#"
   xmlns:svg="http://www.w3.org/2000/svg"
   xmlns="http://www.w3.org/2000/svg"
   xmlns:sodipodi="http://sodipodi.sourceforge.net/DTD/sodipodi-0.dtd"
   xmlns:inkscape="http://www.inkscape.org/namespaces/inkscape"
   version="1.1"
   id="Layer_1"
   x="0px"
   y="0px"
   width="264px"
   height="162px"
   viewBox="0 0 264 162"
   enable-background="new 0 0 264 162"
   xml:space="preserve"
   inkscape:version="0.48.4 r9939"
   sodipodi:docname="typography-beta.svg"><metadata
     id="metadata58"><rdf:RDF><cc:Work
         rdf:about=""><dc:format>image/svg+xml</dc:format><dc:type
           rdf:resource="http://purl.org/dc/dcmitype/StillImage" /><dc:title></dc:title></cc:Work></rdf:RDF></metadata><defs
     id="defs56" /><sodipodi:namedview
     pagecolor="#ffffff"
     bordercolor="#666666"
     borderopacity="1"
     objecttolerance="10"
     gridtolerance="10"
     guidetolerance="10"
     inkscape:pageopacity="0"
     inkscape:pageshadow="2"
     inkscape:window-width="1044"
     inkscape:window-height="797"
     id="namedview54"
     showgrid="false"
     inkscape:zoom="1.1022727"
     inkscape:cx="119.78161"
     inkscape:cy="81"
     inkscape:window-x="215"
     inkscape:window-y="55"
     inkscape:window-maximized="0"
     inkscape:current-layer="Layer_1" /><g
     id="g3"
     transform="matrix(-1,0,0,1,264,0)"><polygon
       points="13.366,161.357 0.5,151.749 0.5,0.5 263.5,0.5 263.5,152.249 254.5,158.954 254.5,42.5 215.5,42.5 215.5,155.1 211.107,151.369 203.5,156.699 203.5,42.5 48.5,42.5 48.5,153.35 38.749,161.38 24.833,151.361 "
       id="polygon5"
       style="fill:#ffffff" /><g
       id="g7"><path
         d="m 263,1 v 150.998 l -8,5.96 V 43 42 h -1 -38 -1 v 1 111.02 l -3.274,-2.781 -0.589,-0.498 -0.633,0.441 -6.504,4.556 V 43 42 H 203 49 48 v 1 110.1 l -9.257,7.66 -13.295,-9.57 -0.645,-0.463 -0.598,0.521 -10.864,9.47 L 1,151.499 V 1 h 262 m 1,-1 H 0 V 152 L 13.391,162 24.865,152 38.756,162 49,153.6 V 43 H 203 V 157.66 L 211.078,152 216,156.18 V 43 h 38 v 116.95 l 10,-7.45 V 0 l 0,0 z"
         id="path9"
         inkscape:connector-curvature="0"
         style="fill:#e5e5e5" /></g></g><path
     d="M 61,157.66 V 43 H 215 V 153.6 L 212.855,152 200.3,162 186.491,152 172.262,162 159.29,152 146.317,162 132.506,152 120.37,162 106.979,152 92.75,162 79.778,152 66.804,162 61,157.66 z"
     id="path11"
     inkscape:connector-curvature="0"
     style="fill:#e5e5e5" /><path
     id="Ellipse"
     d="m 253,36 c 0,-7.732 -6.268,-14 -14,-14 -7.732,0 -14,6.268 -14,14 0,7.732 6.268,14 14,14 7.732,0 14,-6.268 14,-14 z"
     inkscape:connector-curvature="0"
     style="fill:#e5e5e5" /><path
     d="M 10,159.95 V 43 H 48 V 156.18 L 40.449,162 26.638,152 12.747,162 10,159.95 z"
     id="path14"
     inkscape:connector-curvature="0"
     style="fill:#e5e5e5" /><path
     d="M 226,107 V 72 h 25 v 35 h -25 z"
     id="path16"
     inkscape:connector-curvature="0"
     style="fill:#e5e5e5" /><path
     d="m 31.49,5 h -26 v 6 h 26 V 5 z"
     id="path18"
     inkscape:connector-curvature="0"
     style="fill:#e5e5e5" /><rect
     x="-55.490005"
     y="5"
     width="22"
     height="6"
     id="rect20"
     transform="scale(-1,1)"
     style="fill:#e5e5e5" /><path
     d="m 122,6 v 4 h 92 V 6 h -92 m -1,-1 h 94 v 6 H 121 V 5 l 0,0 z"
     id="path22"
     inkscape:connector-curvature="0"
     style="fill:#e5e5e5" /><rect
     x="-79.490005"
     y="5"
     width="22"
     height="6"
     id="rect24"
     transform="scale(-1,1)"
     style="fill:#e5e5e5" /><rect
     x="-102.49001"
     y="5"
     width="13"
     height="6"
     id="rect26"
     transform="scale(-1,1)"
     style="fill:#e5e5e5" /><rect
     x="-87.490005"
     y="5"
     width="6"
     height="6"
     id="rect28"
     transform="scale(-1,1)"
     style="fill:#e5e5e5" /><rect
     x="-110.49001"
     y="5"
     width="6"
     height="6"
     id="rect30"
     transform="scale(-1,1)"
     style="fill:#e5e5e5" /><rect
     x="-255"
     y="5"
     width="32"
     height="6"
     id="rect32"
     transform="scale(-1,1)"
     style="fill:#e5e5e5" /><path
     d="M 262,14.5 H 2"
     id="path34"
     inkscape:connector-curvature="0"
     style="fill:#e5e5e5;stroke:#e5e5e5" /><rect
     x="-212"
     y="7"
     width="2"
     height="2"
     id="rect36"
     transform="scale(-1,1)"
     style="fill:#e5e5e5" /><path
     d="m 226,59 v -5 h 25 v 5 h -25 z"
     id="path38"
     inkscape:connector-curvature="0"
     style="fill:#e5e5e5" /><path
     style="fill:#cdcccc"
     inkscape:connector-curvature="0"
     id="path46"
     d="M 165,78 H 77 v 3 h 88 v -3 z" /><path
     style="fill:#cdcccc"
     inkscape:connector-curvature="0"
     id="path48"
     d="M 177,115 H 77 v 3 h 100 v -3 z" /><path
     style="fill:#cdcccc"
     inkscape:connector-curvature="0"
     id="path50"
     d="M 200,125 H 77 v 3 h 123 v -3 z" /><path
     style="fill:#cdcccc"
     inkscape:connector-curvature="0"
     id="path52"
     d="M 200,134 H 77 v 3 h 123 v -3 z" /><text
     xml:space="preserve"
     style="font-size:48px;font-style:normal;font-variant:normal;font-weight:500;font-stretch:normal;line-height:125%;letter-spacing:0px;word-spacing:0px;fill:#454545;fill-opacity:1;stroke:none;font-family:David CLM;-inkscape-font-specification:David CLM Medium"
     x="174"
     y="80.536079"
     id="text3813"
     sodipodi:linespacing="125%"><tspan
       sodipodi:role="line"
       id="tspan3815"
       x="174"
       y="80.536079">א</tspan></text>
<text
     xml:space="preserve"
     style="font-size:32px;font-style:normal;font-variant:normal;font-weight:500;font-stretch:normal;line-height:125%;letter-spacing:0px;word-spacing:0px;fill:#888888;fill-opacity:1;stroke:none;font-family:David CLM;-inkscape-font-specification:David CLM Medium"
     x="179.42268"
     y="117.93814"
     id="text3817"
     sodipodi:linespacing="125%"><tspan
       sodipodi:role="line"
       id="tspan3819"
       x="179.42268"
       y="117.93814">א</tspan></text>
</svg>