<?xml version="1.0" encoding="utf-8"?>
<!-- Generator: Adobe Illustrator 18.0.0, SVG Export Plug-In . SVG Version: 6.00 Build 0)  -->
<!DOCTYPE svg PUBLIC "-//W3C//DTD SVG 1.1//EN" "http://www.w3.org/Graphics/SVG/1.1/DTD/svg11.dtd">
<svg version="1.1" id="Layer_1" xmlns="http://www.w3.org/2000/svg" xmlns:xlink="http://www.w3.org/1999/xlink" x="0px" y="0px"
	 width="128px" height="128px" viewBox="0 0 128 128" enable-background="new 0 0 128 128" xml:space="preserve">
<path d="M11.6,119H116c7.3,0,12-7.7,8.7-14.2L72.5,12.3c-3.6-7.2-13.9-7.2-17.5,0L2.8,104.8C-0.4,111.3,4.3,119,11.6,119z M72,97.5
	c0,4.8-3.5,8.5-8.5,8.5s-8.5-3.7-8.5-8.5v-0.2c0-4.8,3.5-8.5,8.5-8.5s8.5,3.7,8.5,8.5V97.5z M58.9,35h9.8c2.7,0,4.3,2.3,4,5.2
	l-4.3,37.6c-0.3,2.7-2.1,4.4-4.6,4.4s-4.3-1.7-4.6-4.4l-4.3-37.6C54.6,37.3,56.2,35,58.9,35z"/>
</svg>
