<?xml version="1.0" encoding="utf-8"?>
<!-- Generator: Adobe Illustrator 15.0.0, SVG Export Plug-In . SVG Version: 6.00 Build 0)  -->
<!DOCTYPE svg PUBLIC "-//W3C//DTD SVG 1.1//EN" "http://www.w3.org/Graphics/SVG/1.1/DTD/svg11.dtd">
<svg version="1.1" id="Layer_1" xmlns="http://www.w3.org/2000/svg" xmlns:xlink="http://www.w3.org/1999/xlink" x="0px" y="0px"
	 width="26px" height="26px" viewBox="0 0 26 26" enable-background="new 0 0 26 26" xml:space="preserve">
<rect fill="none" width="26" height="26"/>
<path fill="#000000" d="M13,1C6.373,1,1,6.373,1,13s5.373,12,12,12s12-5.373,12-12S19.627,1,13,1z M13,20.66
	c-0.938,0-1.58-0.723-1.58-1.66c0-0.964,0.669-1.66,1.58-1.66c0.963,0,1.58,0.696,1.58,1.66C14.58,19.938,13.963,20.66,13,20.66z
	 M13.622,14.321c-0.239,0.815-0.992,0.829-1.243,0c-0.289-0.956-1.316-4.585-1.316-6.942c0-3.11,3.891-3.125,3.891,0
	C14.953,9.75,13.871,13.473,13.622,14.321z"/>
</svg>
