<?xml version="1.0" encoding="utf-8"?>
<!-- Generator: Adobe Illustrator 17.1.0, SVG Export Plug-In . SVG Version: 6.00 Build 0)  -->
<!DOCTYPE svg PUBLIC "-//W3C//DTD SVG 1.1//EN" "http://www.w3.org/Graphics/SVG/1.1/DTD/svg11.dtd">
<svg version="1.1" id="Layer_1" xmlns="http://www.w3.org/2000/svg" xmlns:xlink="http://www.w3.org/1999/xlink" x="0px" y="0px"
	 viewBox="0 0 612 792" enable-background="new 0 0 612 792" xml:space="preserve">
<g>
	<path fill="#777777" d="M302.8,142.9L225.7,220c-6.4,6.4-12.8,14-17.8,21c-1.3,1.3-2.6,3.2-3.2,5.1c37.6-10.2,77.1-9.6,114.1,1.9
		l6.4-6.4l42.7-42.7c37.6-37.6,98.2-37.6,135.8,0s37.6,98.2,0,135.8L454,383.2l-10.2,10.2l-9.6,9.6l0,0l-15.9,16.6
		c-16.6,16.6-38.2,26.1-60.6,27.4l0,0l0,0c-4.5,0.6-8.9,0.6-12.1,0c-7.7-0.6-12.1-1.3-12.1-1.3l0,0l0,0c-18.5-3.2-36.3-12.1-51-26.8
		c-14-14-22.9-31.2-26.1-49.7c0-0.6,0-1.3,0-1.9c-16.6,1.3-32.5,8.3-45.3,21l-25.5,25.5c8.9,22.3,22.3,43.3,40.2,61.2
		s38.9,31.2,61.2,40.2c4.5,1.9,8.3,3.2,12.8,4.5c3.2,1.3,7,1.9,10.8,3.2h0.6c0.6,0,1.3,0,1.9,0.6c37,8.3,76.5,5.1,111.6-9.6
		c4.5-1.9,8.3-3.8,12.8-6.4c0,0,0.6,0,0.6-0.6c0.6-0.6,1.3-0.6,1.9-1.3c1.9-0.6,3.8-1.9,5.1-3.2l0,0c12.8-7.7,24.9-17.2,35.7-28.1
		l77.1-77.1c70.8-70.8,70.8-185.5,0-256.3C488.3,72.2,373.6,72.2,302.8,142.9z"/>
	<path fill="#777777" d="M309.2,649.1l77.1-77.8c7-6.4,12.8-13.4,17.9-21c1.3-1.9,2.6-3.2,3.2-5.1c-37.6,10.2-77.1,9.6-114.1-1.9
		l-6.4,6.4l-42.7,42.7c-37.6,37.6-98.2,37.6-135.8,0s-37.6-98.2,0-135.8l48.4-48.5l10.2-10.2l9.6-9.6l0,0l15.9-15.9
		c17.2-17.2,38.2-26.1,60.6-28.1l0,0l0,0c4.5-0.6,8.9-0.6,12.1,0c7.6,0.6,12.1,1.3,12.1,1.3l0,0l0,0c18.5,3.2,36.3,12.1,51,26.8
		c14,14,22.9,31.2,26.1,49.7c0,0.6,0,1.3,0,1.9c16.6-1.3,32.5-8.3,44.6-21l25.5-25.5c-8.9-22.3-22.3-43.4-40.2-61.2
		c-17.8-17.8-38.9-31.2-61.2-40.2c-3.8-1.9-8.3-3.2-12.8-4.5c-3.2-1.3-7-1.9-10.8-3.2H299c-0.6,0-1.3-0.6-1.9-0.6
		c-37-8.3-76.5-5.1-111.6,9.6c-4.5,1.9-8.9,3.8-12.8,5.7c0,0-0.6,0-0.6,0.6c-0.6,0.6-1.3,0.6-1.9,1.3c-1.9,0.6-3.8,1.9-5.1,3.2l0,0
		c-12.8,7.6-24.9,17.2-36.3,28l-75.9,76.5c-70.8,70.8-70.8,185.5,0,256.3C123.7,719.9,238.4,719.9,309.2,649.1z"/>
</g>
</svg>
