<?xml version="1.0" encoding="utf-8"?>
<!-- Generator: Adobe Illustrator 17.1.0, SVG Export Plug-In . SVG Version: 6.00 Build 0)  -->
<!DOCTYPE svg PUBLIC "-//W3C//DTD SVG 1.1//EN" "http://www.w3.org/Graphics/SVG/1.1/DTD/svg11.dtd">
<svg version="1.1" id="Layer_1" xmlns="http://www.w3.org/2000/svg" xmlns:xlink="http://www.w3.org/1999/xlink" x="0px" y="0px"
	 viewBox="0 0 96 96" enable-background="new 0 0 96 96" xml:space="preserve">
<path fill="#787878" d="M75.9,45.3V28.6h0c0-0.3,0-0.6,0-0.8C75.9,12.4,63.4,0,48.1,0C32.7,0,20.3,12.4,20.3,27.8c0,0.3,0,0.6,0,0.8
	h0v16.7h-8.6v50.6h4.7c0.2,0,0.3,0.1,0.5,0.1h62.3c0.2,0,0.3-0.1,0.5-0.1h4.6v-5V50.5v-5.2H75.9z M33.8,28.6L33.8,28.6
	c0-0.3,0-0.6,0-0.8c0-7.9,6.4-14.3,14.3-14.3c7.9,0,14.3,6.4,14.3,14.3c0,0.3,0,0.6,0,0.8h0v16.7H33.8V28.6z"/>
</svg>
