<?xml version="1.0" encoding="utf-8"?>
<!-- Generator: Adobe Illustrator 17.1.0, SVG Export Plug-In . SVG Version: 6.00 Build 0)  -->
<!DOCTYPE svg PUBLIC "-//W3C//DTD SVG 1.1//EN" "http://www.w3.org/Graphics/SVG/1.1/DTD/svg11.dtd">
<svg version="1.1" id="Layer_1" xmlns="http://www.w3.org/2000/svg" xmlns:xlink="http://www.w3.org/1999/xlink" x="0px" y="0px"
	 viewBox="0 0 612 792" enable-background="new 0 0 612 792" xml:space="preserve">
<path fill="#777777" d="M69.5,513.3c45.3,45.3,104.5,70.1,168.9,70.1c56.1,0,109-19.1,151.7-54.2L563.5,686c0,0,38.9-10.2,48.5-53.5
	L438,475.1c61.2-93.1,50.4-218-30.6-299C362.1,130.8,302.9,106,239.1,106s-123.7,24.9-168.9,69.5C-23.6,269.1-22.9,420.2,69.5,513.3
	z M109,228.3c1.9-2.6,4.5-5.1,7-7c33.2-32.5,76.5-51,123-51s89.9,18.5,123,51c67.6,67.6,68.2,177.9-0.6,246.1
	c-33.1,33.1-76.5,51-123,51s-89.9-18.5-123-51C50.4,402.4,47.2,297.2,109,228.3z"/>
</svg>
