<?xml version="1.0" encoding="utf-8"?>
<!-- Generator: Adobe Illustrator 17.1.0, SVG Export Plug-In . SVG Version: 6.00 Build 0)  -->
<!DOCTYPE svg PUBLIC "-//W3C//DTD SVG 1.1//EN" "http://www.w3.org/Graphics/SVG/1.1/DTD/svg11.dtd">
<svg version="1.1" id="Layer_1" xmlns="http://www.w3.org/2000/svg" xmlns:xlink="http://www.w3.org/1999/xlink" x="0px" y="0px"
	 viewBox="0 0 96 96" enable-background="new 0 0 96 96" xml:space="preserve">
<path fill="#787878" d="M33.6,24h28.8v9.6H33.6V24z M81.6,43.2v9.6h-48v-9.6C33.6,43.2,81.6,43.2,81.6,43.2z M33.6,72v-9.6h48V72
	H33.6z M19.2,24H5.7l-0.9-1.3V11.9c0-3.9,3.5-7.1,7.3-7.1c3.9,0,7.1,3.2,7.1,7.1V24z M96,10.2C96,4.6,86.4,0,86.4,0H10.3
	C4.7,0,0,4.6,0,10.2v16l2.5,2.5h16.7V96H96V10.2z"/>
</svg>
