<?xml version="1.0" encoding="utf-8"?>
<!-- Generator: Adobe Illustrator 17.1.0, SVG Export Plug-In . SVG Version: 6.00 Build 0)  -->
<!DOCTYPE svg PUBLIC "-//W3C//DTD SVG 1.1//EN" "http://www.w3.org/Graphics/SVG/1.1/DTD/svg11.dtd">
<svg version="1.1" id="Layer_1" xmlns="http://www.w3.org/2000/svg" xmlns:xlink="http://www.w3.org/1999/xlink" x="0px" y="0px"
	 viewBox="0 0 96 96" enable-background="new 0 0 96 96" xml:space="preserve">
<path fill="#FFFFFF" d="M85.1,31.4c-0.2-4-2.1-7.9-4.9-11c-2.8-3.2-6.7-5.6-10.9-6.3C57,25.2,26,53.1,15.2,62.7l0,0l0,0l-4.3,19.6
	l20-2.2l0,0l0,0l0,0l0,0C41.7,70.3,72.8,42.4,85.1,31.4z M25.1,68.4c-1.6-1.6-2.9-2.5-4.6-3.7l48.6-44c1.6,0.5,3.9,1.9,4.6,3.7
	L25.1,68.4z"/>
</svg>
