<?xml version="1.0" encoding="utf-8"?>
<!-- Generator: Adobe Illustrator 17.1.0, SVG Export Plug-In . SVG Version: 6.00 Build 0)  -->
<!DOCTYPE svg PUBLIC "-//W3C//DTD SVG 1.1//EN" "http://www.w3.org/Graphics/SVG/1.1/DTD/svg11.dtd">
<svg version="1.1" id="Layer_1" xmlns="http://www.w3.org/2000/svg" xmlns:xlink="http://www.w3.org/1999/xlink" x="0px" y="0px"
	 viewBox="0 0 612 792" enable-background="new 0 0 612 792" xml:space="preserve">
<path fill="#777777" d="M612,258.9c-1.9-33.2-17.2-65-40.2-90.5c-22.9-26.1-55.5-45.9-89.9-51.6C380.6,207.9,124.3,438.1,35.7,517.1
	l0,0l0,0L0,678.4l165.1-17.9l0,0l0,0l0,0l0,0C254.4,580.2,510.6,350.1,612,258.9z M117.3,564.3c-12.8-12.8-23.6-20.4-38.2-30.6
	L480,171c13.4,4.5,32.5,15.3,38.3,30.6L117.3,564.3z"/>
</svg>
