<?xml version="1.0" encoding="utf-8"?>
<!-- Generator: Adobe Illustrator 17.1.0, SVG Export Plug-In . SVG Version: 6.00 Build 0)  -->
<!DOCTYPE svg PUBLIC "-//W3C//DTD SVG 1.1//EN" "http://www.w3.org/Graphics/SVG/1.1/DTD/svg11.dtd">
<svg version="1.1" id="Layer_1" xmlns="http://www.w3.org/2000/svg" xmlns:xlink="http://www.w3.org/1999/xlink" x="0px" y="0px"
	 viewBox="0 0 612 792" enable-background="new 0 0 612 792" xml:space="preserve">
<g>
	<path fill="#DDDDDD" d="M410.2,405.6h-13.1V292.9L102.8,559c-11.1-11.2-20.6-18.1-33.6-26.9l352.2-318.5h0.1V192v-9.3h0.1
		c0-1-0.1-2-0.1-3c0-4.4,0.4-8.8,1.2-13C333.3,247.1,109,448.3,31.4,518c0.1,0,0.2,0.1,0.2,0.1c-0.1,0-0.1-0.1-0.2-0.1L0,659.4
		l144.9-16v0.1c0.1,0,0.1-0.1,0.1-0.1h0.1v-0.1C196.8,597,312.1,493.6,410.2,405.6z"/>
	<path fill="#777777" d="M591.4,243.5v-40.8h-0.1c0-0.7,0.1-1.4,0.1-2.1c0-37.6-30.5-68-68.1-68c-37.5,0-68,30.5-68,68
		c0,0.7,0.1,1.4,0.1,2.1h-0.1v40.8h-21v123.9h11.6c0.4,0,0.7,0.2,1.1,0.2h152.6c0.4,0,0.7-0.2,1.1-0.2H612v-12.1v-99v-12.8
		L591.4,243.5L591.4,243.5z M488.3,202.7h0.1c0-0.7-0.1-1.4-0.1-2.1c0-19.3,15.7-35,35-35s35.1,15.7,35.1,35c0,0.7-0.1,1.4-0.1,2.1
		h0.1v40.8h-70.1L488.3,202.7L488.3,202.7z"/>
</g>
</svg>
