<?xml version="1.0" encoding="utf-8"?><svg xmlns="http://www.w3.org/2000/svg" width="96" height="96" viewBox="0 0 96 96"><path d="M47.774 48.22c7.01 0 12.692-7.915 12.692-17.679 0-.778-.049-1.538-.118-2.288l.005-.092c0-1.831-.401-3.567-1.102-5.135-1.967-4.382-6.363-7.443-11.478-7.443-5.117 0-9.512 3.061-11.478 7.445-.704 1.568-1.102 3.304-1.102 5.135l.004.093c-.069.749-.116 1.509-.116 2.286.001 9.764 5.683 17.678 12.693 17.678zm21.296-2.93h-7.32c-2.839 5.347-9.186 8.37-13.976 8.37-4.729 0-11.528-3.324-13.976-8.37h-13.298v31.127h55v-24.726c-.009-.305-.297-6.401-6.43-6.401z" fill="#A1A1A0"/></svg>