<?xml version="1.0" encoding="utf-8"?><svg xmlns="http://www.w3.org/2000/svg" width="96" height="96" viewBox="0 0 96 96"><path fill="#fff" d="M47.557 18.041c.243-.493.642-.493.885 0l8.231 16.678c.243.493.888.961 1.432 1.041l18.405 2.674c.544.079.667.458.274.842l-13.318 12.981c-.394.384-.64 1.142-.547 1.684l3.144 18.33c.093.542-.229.776-.716.52l-16.462-8.654c-.487-.256-1.283-.256-1.77 0l-16.462 8.654c-.487.256-.809.022-.716-.52l3.144-18.33c.093-.542-.153-1.3-.547-1.684l-13.318-12.982c-.394-.384-.271-.763.274-.842l18.405-2.674c.544-.079 1.189-.547 1.432-1.041l8.23-16.677z"/></svg>